# xmcd CD database file
#
# Track frame offsets:
#	150
#	5365
#	19056
#	43358
#	61586
#	84913
#	100591
#	128643
#	157834
#	181835
#	194972
#	214862
#	236838
#	259392
#	281721
#
# Disc length: 4055 seconds
#
# Revision: 0
# Processed by: cddbd v1.5.1PL0 Copyright (c) Steve Scherf et al.
# Submitted via: CDex 1.51
#
DISCID=cb0fd50f
DTITLE=趣味工房にんじんわいん - Angel Knight Sword 5 --Lost of Cage --
DYEAR=2002
DGENRE=
TTITLE0=天使の物語
TTITLE1=白い奇蹟
TTITLE2=軍国蜂起
TTITLE3=白の即興曲(イネアスバトル)
TTITLE4=白竜の森
TTITLE5=物語が終わる時
TTITLE6=祈りの地へ
TTITLE7=コノセカイノスベテ
TTITLE8=星を越える船
TTITLE9=神の声
TTITLE10=牙剥く天使
TTITLE11=愚か者の遺言
TTITLE12=堕ちゆく鳥かご
TTITLE13=死の嵐
TTITLE14=失った光
EXTD=YEAR: 2002
EXTT0=
EXTT1=
EXTT2=
EXTT3=
EXTT4=
EXTT5=
EXTT6=
EXTT7=
EXTT8=
EXTT9=
EXTT10=
EXTT11=
EXTT12=
EXTT13=
EXTT14=
PLAYORDER=
